<svg width="190" height="36" viewBox="0 0 190 36" fill="none" xmlns="http://www.w3.org/2000/svg">
<g filter="url(#filter0_d_459_12597)">
<path d="M25.9098 24.6066H14.3661C12.4741 24.6066 12.1924 23.5164 12.1924 22.868V10.2408C12.1924 7.38367 10.8355 6.05177 7.92001 6.05177H6.63312C6.47143 6.05177 6.31806 6.05178 6.31806 6.53353L6.31641 26.1869L6.39475 27.1371C6.92317 28.409 7.98336 29.0274 9.63864 29.0274H28.5802C28.7019 29.0274 28.8686 29.0274 28.8953 28.529C28.8953 27.9922 28.8469 27.5821 28.7536 27.3071C28.1285 25.4901 27.1983 24.6066 25.9098 24.6066Z" fill="url(#paint0_radial_459_12597)"/>
<path d="M25.9098 24.6066H14.3661C12.4741 24.6066 12.1924 23.5164 12.1924 22.868V10.2408C12.1924 7.38367 10.8355 6.05177 7.92001 6.05177H6.63312C6.47143 6.05177 6.31806 6.05178 6.31806 6.53353L6.31641 26.1869L6.39475 27.1371C6.92317 28.409 7.98336 29.0274 9.63864 29.0274H28.5802C28.7019 29.0274 28.8686 29.0274 28.8953 28.529C28.8953 27.9922 28.8469 27.5821 28.7536 27.3071C28.1285 25.4901 27.1983 24.6066 25.9098 24.6066Z" fill="white"/>
<path d="M57.8269 6.00167H56.39C56.0616 6.00167 55.7215 6.02667 55.3815 6.07335C53.5562 6.73013 52.6693 7.64694 52.6693 8.87049V22.2478C52.6693 23.5013 51.9742 24.2215 50.7623 24.2215H41.139C40.5573 24.2215 39.5838 23.9647 39.5838 22.2478V9.63896C39.5838 9.32391 39.4804 8.85548 39.2804 8.26538C38.6919 6.74179 37.5467 6 35.7781 6H34.1578C33.9328 6 33.5927 6 33.5927 6.81514V24.5348C33.5927 26.1584 33.9361 26.8352 34.2245 27.1169L34.2845 27.1753L34.3195 27.252C34.8679 28.4455 36.0432 29.0256 37.9151 29.0256H54.2513C54.748 29.0256 55.2014 29.0006 55.6015 28.9523C57.6018 28.2555 58.5737 27.0353 58.5737 25.2216V6.48341C58.577 6.29171 58.577 6.00167 57.8269 6.00167Z" fill="url(#paint1_radial_459_12597)"/>
<path d="M57.8269 6.00167H56.39C56.0616 6.00167 55.7215 6.02667 55.3815 6.07335C53.5562 6.73013 52.6693 7.64694 52.6693 8.87049V22.2478C52.6693 23.5013 51.9742 24.2215 50.7623 24.2215H41.139C40.5573 24.2215 39.5838 23.9647 39.5838 22.2478V9.63896C39.5838 9.32391 39.4804 8.85548 39.2804 8.26538C38.6919 6.74179 37.5467 6 35.7781 6H34.1578C33.9328 6 33.5927 6 33.5927 6.81514V24.5348C33.5927 26.1584 33.9361 26.8352 34.2245 27.1169L34.2845 27.1753L34.3195 27.252C34.8679 28.4455 36.0432 29.0256 37.9151 29.0256H54.2513C54.748 29.0256 55.2014 29.0006 55.6015 28.9523C57.6018 28.2555 58.5737 27.0353 58.5737 25.2216V6.48341C58.577 6.29171 58.577 6.00167 57.8269 6.00167Z" fill="white"/>
<path d="M88.1254 6.05177H69.1838C68.7688 6.05177 68.302 6.20513 67.7703 6.52019C66.7901 7.02027 66.315 8.00211 66.315 9.52237V10.4575C66.315 10.5809 66.315 10.6892 66.7134 10.6892H85.8217C85.9434 10.6892 85.995 10.6742 85.9984 10.6742L86.0251 10.6576L86.0551 10.6442C87.772 9.89243 88.6055 8.82725 88.6055 7.38534V6.28348C88.6072 6.18513 88.6072 6.05177 88.1254 6.05177Z" fill="url(#paint2_radial_459_12597)"/>
<path d="M88.1254 6.05177H69.1838C68.7688 6.05177 68.302 6.20513 67.7703 6.52019C66.7901 7.02027 66.315 8.00211 66.315 9.52237V10.4575C66.315 10.5809 66.315 10.6892 66.7134 10.6892H85.8217C85.9434 10.6892 85.995 10.6742 85.9984 10.6742L86.0251 10.6576L86.0551 10.6442C87.772 9.89243 88.6055 8.82725 88.6055 7.38534V6.28348C88.6072 6.18513 88.6072 6.05177 88.1254 6.05177Z" fill="white"/>
<path d="M84.1164 24.1398H73.5413C73.0978 24.1398 72.326 23.9681 72.141 22.8229L72.136 22.7862V16.6035C72.136 16.1234 71.981 16.0384 71.6543 16.0384H70.119C67.5219 16.0384 66.3134 17.2203 66.3134 19.7591V25.6384C66.3134 26.1718 66.4167 26.7203 66.6017 27.227C67.1918 28.4372 68.4854 29.0257 70.5541 29.0257H87.7754C88.3271 29.0257 88.6072 28.919 88.6072 28.7106V27.3854C88.1621 25.2017 86.6919 24.1398 84.1164 24.1398Z" fill="url(#paint3_radial_459_12597)"/>
<path d="M84.1164 24.1398H73.5413C73.0978 24.1398 72.326 23.9681 72.141 22.8229L72.136 22.7862V16.6035C72.136 16.1234 71.981 16.0384 71.6543 16.0384H70.119C67.5219 16.0384 66.3134 17.2203 66.3134 19.7591V25.6384C66.3134 26.1718 66.4167 26.7203 66.6017 27.227C67.1918 28.4372 68.4854 29.0257 70.5541 29.0257H87.7754C88.3271 29.0257 88.6072 28.919 88.6072 28.7106V27.3854C88.1621 25.2017 86.6919 24.1398 84.1164 24.1398Z" fill="white"/>
<path d="M101.753 6.00164H96.7919C96.2935 6.00164 96.2935 6.16166 96.2935 6.31669V28.6289C96.2935 28.7372 96.2935 29.0273 97.2086 29.0273H101.401C101.953 29.0273 102.233 28.9206 102.233 28.7122V6.23334C102.233 6.13499 102.233 6.00164 101.753 6.00164Z" fill="url(#paint4_radial_459_12597)"/>
<path d="M101.753 6.00164H96.7919C96.2935 6.00164 96.2935 6.16166 96.2935 6.31669V28.6289C96.2935 28.7372 96.2935 29.0273 97.2086 29.0273H101.401C101.953 29.0273 102.233 28.9206 102.233 28.7122V6.23334C102.233 6.13499 102.233 6.00164 101.753 6.00164Z" fill="white"/>
<path d="M130.496 6.00164H111.004C110.606 6.00164 110.606 6.10833 110.606 6.23168V7.60191C110.606 7.9303 110.701 8.31704 110.886 8.75212C111.743 10.014 112.648 10.6541 113.576 10.6541H125.889C126.539 10.6541 127.627 10.9242 127.627 12.7278V22.0477C127.627 23.8514 126.747 24.1214 126.222 24.1214H117.936C116.989 24.1214 116.447 23.5847 116.447 22.6495V16.9202C116.447 16.005 116.122 16.005 115.965 16.005H114.428C113.88 16.005 113.225 16.1334 112.48 16.3834C111.219 17.1219 110.606 17.997 110.606 19.0572V28.7105C110.606 28.9839 111.179 29.0256 111.521 29.0256H129.478C129.919 29.0256 130.478 28.9739 131.136 28.8722C132.816 28.1338 133.633 27.1303 133.633 25.805V9.30388C133.633 9.07884 133.61 8.83546 133.565 8.58041C132.846 6.84512 131.841 6.00164 130.496 6.00164Z" fill="url(#paint5_radial_459_12597)"/>
<path d="M130.496 6.00164H111.004C110.606 6.00164 110.606 6.10833 110.606 6.23168V7.60191C110.606 7.9303 110.701 8.31704 110.886 8.75212C111.743 10.014 112.648 10.6541 113.576 10.6541H125.889C126.539 10.6541 127.627 10.9242 127.627 12.7278V22.0477C127.627 23.8514 126.747 24.1214 126.222 24.1214H117.936C116.989 24.1214 116.447 23.5847 116.447 22.6495V16.9202C116.447 16.005 116.122 16.005 115.965 16.005H114.428C113.88 16.005 113.225 16.1334 112.48 16.3834C111.219 17.1219 110.606 17.997 110.606 19.0572V28.7105C110.606 28.9839 111.179 29.0256 111.521 29.0256H129.478C129.919 29.0256 130.478 28.9739 131.136 28.8722C132.816 28.1338 133.633 27.1303 133.633 25.805V9.30388C133.633 9.07884 133.61 8.83546 133.565 8.58041C132.846 6.84512 131.841 6.00164 130.496 6.00164Z" fill="white"/>
<path d="M147.129 6.00164H142.168C141.67 6.00164 141.67 6.16166 141.67 6.31669V28.6289C141.67 28.7372 141.67 29.0273 142.585 29.0273H146.777C147.329 29.0273 147.609 28.9206 147.609 28.7122V6.23334C147.611 6.13499 147.611 6.00164 147.129 6.00164Z" fill="url(#paint6_radial_459_12597)"/>
<path d="M147.129 6.00164H142.168C141.67 6.00164 141.67 6.16166 141.67 6.31669V28.6289C141.67 28.7372 141.67 29.0273 142.585 29.0273H146.777C147.329 29.0273 147.609 28.9206 147.609 28.7122V6.23334C147.611 6.13499 147.611 6.00164 147.129 6.00164Z" fill="white"/>
<path d="M183.935 28.7438L183.849 28.6805L183.8 28.5855C181.155 23.4379 179.314 19.9607 178.323 18.2321C174.935 11.6793 173.043 8.07197 172.695 7.50687L172.662 7.45186L172.645 7.38852C172.307 6.14664 171.665 6.00329 171.211 6.00329H166.851C165.462 6.00329 164.192 7.2935 163.06 9.87061C155.872 23.4463 153.575 27.8887 153.048 28.9906C153.177 29.0106 153.38 29.0289 153.69 29.0289H156.412C158.167 29.0289 159.383 28.4922 160.126 27.387C160.83 25.9284 162.755 22.2794 165.834 16.5734C167.439 12.9295 167.997 12.6278 168.471 12.6278H168.554C169.034 12.6278 169.474 13.0945 170.076 14.2414C172.767 19.4173 172.767 19.4989 172.767 19.6606V19.9107C172.767 20.3057 172.585 20.6408 172.24 20.8842L172.153 20.9458L172.048 20.9625C170.96 21.1292 170.48 21.3392 170.268 21.4876L170.151 21.5693H170.008C169.566 21.5693 168.658 21.9977 167.487 24.8415C169.193 24.9049 170.558 24.9382 171.545 24.9382C172.036 24.9382 172.598 24.9049 173.217 24.8399L173.342 24.8382L173.438 24.8715C173.457 24.8782 173.65 24.9365 174.534 24.9365H174.717C175.397 24.9365 176.022 25.5916 176.756 27.0869C177.296 28.3921 178.639 29.0272 180.863 29.0272H183.435C183.738 29.0272 183.909 29.0039 184 28.9822V28.9806C184 28.8939 183.989 28.7839 183.935 28.7438Z" fill="url(#paint7_radial_459_12597)"/>
<path d="M183.935 28.7438L183.849 28.6805L183.8 28.5855C181.155 23.4379 179.314 19.9607 178.323 18.2321C174.935 11.6793 173.043 8.07197 172.695 7.50687L172.662 7.45186L172.645 7.38852C172.307 6.14664 171.665 6.00329 171.211 6.00329H166.851C165.462 6.00329 164.192 7.2935 163.06 9.87061C155.872 23.4463 153.575 27.8887 153.048 28.9906C153.177 29.0106 153.38 29.0289 153.69 29.0289H156.412C158.167 29.0289 159.383 28.4922 160.126 27.387C160.83 25.9284 162.755 22.2794 165.834 16.5734C167.439 12.9295 167.997 12.6278 168.471 12.6278H168.554C169.034 12.6278 169.474 13.0945 170.076 14.2414C172.767 19.4173 172.767 19.4989 172.767 19.6606V19.9107C172.767 20.3057 172.585 20.6408 172.24 20.8842L172.153 20.9458L172.048 20.9625C170.96 21.1292 170.48 21.3392 170.268 21.4876L170.151 21.5693H170.008C169.566 21.5693 168.658 21.9977 167.487 24.8415C169.193 24.9049 170.558 24.9382 171.545 24.9382C172.036 24.9382 172.598 24.9049 173.217 24.8399L173.342 24.8382L173.438 24.8715C173.457 24.8782 173.65 24.9365 174.534 24.9365H174.717C175.397 24.9365 176.022 25.5916 176.756 27.0869C177.296 28.3921 178.639 29.0272 180.863 29.0272H183.435C183.738 29.0272 183.909 29.0039 184 28.9822V28.9806C184 28.8939 183.989 28.7839 183.935 28.7438Z" fill="white"/>
</g>
<defs>
<filter id="filter0_d_459_12597" x="0.316406" y="0" width="189.684" height="35.0293" filterUnits="userSpaceOnUse" color-interpolation-filters="sRGB">
<feFlood flood-opacity="0" result="BackgroundImageFix"/>
<feColorMatrix in="SourceAlpha" type="matrix" values="0 0 0 0 0 0 0 0 0 0 0 0 0 0 0 0 0 0 127 0" result="hardAlpha"/>
<feOffset/>
<feGaussianBlur stdDeviation="3"/>
<feComposite in2="hardAlpha" operator="out"/>
<feColorMatrix type="matrix" values="0 0 0 0 1 0 0 0 0 1 0 0 0 0 1 0 0 0 0.11 0"/>
<feBlend mode="normal" in2="BackgroundImageFix" result="effect1_dropShadow_459_12597"/>
<feBlend mode="normal" in="SourceGraphic" in2="effect1_dropShadow_459_12597" result="shape"/>
</filter>
<radialGradient id="paint0_radial_459_12597" cx="0" cy="0" r="1" gradientUnits="userSpaceOnUse" gradientTransform="translate(182.5 19) rotate(179.839) scale(178.001 114.966)">
<stop stop-color="#8B69B3"/>
<stop offset="0.473593" stop-color="white"/>
<stop offset="0.99487" stop-color="#958CA0"/>
</radialGradient>
<radialGradient id="paint1_radial_459_12597" cx="0" cy="0" r="1" gradientUnits="userSpaceOnUse" gradientTransform="translate(182.5 19) rotate(179.839) scale(178.001 114.966)">
<stop stop-color="#8B69B3"/>
<stop offset="0.473593" stop-color="white"/>
<stop offset="0.99487" stop-color="#958CA0"/>
</radialGradient>
<radialGradient id="paint2_radial_459_12597" cx="0" cy="0" r="1" gradientUnits="userSpaceOnUse" gradientTransform="translate(182.5 19) rotate(179.839) scale(178.001 114.966)">
<stop stop-color="#8B69B3"/>
<stop offset="0.473593" stop-color="white"/>
<stop offset="0.99487" stop-color="#958CA0"/>
</radialGradient>
<radialGradient id="paint3_radial_459_12597" cx="0" cy="0" r="1" gradientUnits="userSpaceOnUse" gradientTransform="translate(182.5 19) rotate(179.839) scale(178.001 114.966)">
<stop stop-color="#8B69B3"/>
<stop offset="0.473593" stop-color="white"/>
<stop offset="0.99487" stop-color="#958CA0"/>
</radialGradient>
<radialGradient id="paint4_radial_459_12597" cx="0" cy="0" r="1" gradientUnits="userSpaceOnUse" gradientTransform="translate(182.5 19) rotate(179.839) scale(178.001 114.966)">
<stop stop-color="#8B69B3"/>
<stop offset="0.473593" stop-color="white"/>
<stop offset="0.99487" stop-color="#958CA0"/>
</radialGradient>
<radialGradient id="paint5_radial_459_12597" cx="0" cy="0" r="1" gradientUnits="userSpaceOnUse" gradientTransform="translate(182.5 19) rotate(179.839) scale(178.001 114.966)">
<stop stop-color="#8B69B3"/>
<stop offset="0.473593" stop-color="white"/>
<stop offset="0.99487" stop-color="#958CA0"/>
</radialGradient>
<radialGradient id="paint6_radial_459_12597" cx="0" cy="0" r="1" gradientUnits="userSpaceOnUse" gradientTransform="translate(182.5 19) rotate(179.839) scale(178.001 114.966)">
<stop stop-color="#8B69B3"/>
<stop offset="0.473593" stop-color="white"/>
<stop offset="0.99487" stop-color="#958CA0"/>
</radialGradient>
<radialGradient id="paint7_radial_459_12597" cx="0" cy="0" r="1" gradientUnits="userSpaceOnUse" gradientTransform="translate(182.5 19) rotate(179.839) scale(178.001 114.966)">
<stop stop-color="#8B69B3"/>
<stop offset="0.473593" stop-color="white"/>
<stop offset="0.99487" stop-color="#958CA0"/>
</radialGradient>
</defs>
</svg>
